<svg width="100" height="32" viewBox="0 0 100 32" fill="none" xmlns="http://www.w3.org/2000/svg">
<g clip-path="url(#clip0_35_479)">
<path d="M93.365 6.44043H56.2952C56.1537 6.44043 56.0391 6.55512 56.0391 6.69659V31.6822C56.0391 31.8236 56.1537 31.9383 56.2952 31.9383H93.365C93.5065 31.9383 93.6212 31.8236 93.6212 31.6822V6.69659C93.6212 6.55512 93.5065 6.44043 93.365 6.44043Z" fill="#D93025"/>
<path d="M8.41989 9.32764H12.4057L20.8269 29.1158H16.3083L14.5113 24.7086H6.20285L4.40591 29.1158H0L8.41989 9.32764ZM12.9667 20.8919L10.3564 14.5199L7.7462 20.8919H12.9667Z" fill="white"/>
<path d="M22.1758 9.46729H26.4984V25.1851H36.2952V29.1146H22.1771V9.46729H22.1758Z" fill="white"/>
<path d="M38.4277 9.46729H42.7504V25.1851H52.5471V29.1146H38.429V9.46729H38.4277Z" fill="white"/>
<path d="M59.7643 25.1339L61.8814 23.164C63.1123 24.6164 64.4917 25.4297 66.4116 25.4297C68.1099 25.4297 69.3907 24.3949 69.3907 22.7708C69.3907 21.1468 67.8396 20.1119 65.4266 20.1119H64.0229L63.5298 18.2164L68.1829 13.2674H60.7223V10.6328H72.1226V12.8985L67.3209 17.8231C70.0541 18.2176 72.3928 19.6201 72.3928 22.7222C72.3928 25.8242 69.9312 28.1629 66.3603 28.1629C63.3569 28.1629 61.2141 26.9065 59.7617 25.1352L59.7643 25.1339Z" fill="white"/>
<path d="M74.4082 10.6313H80.8339C86.2504 10.6313 89.9928 14.3495 89.9928 19.2485C89.9928 24.1475 86.2504 27.8656 80.8339 27.8656H74.4082V10.6313ZM80.8339 25.1081C84.4534 25.1081 86.8165 22.6707 86.8165 19.2485C86.8165 15.8262 84.4521 13.3889 80.8339 13.3889H77.436V25.1081H80.8339Z" fill="white"/>
<path d="M97.0233 29.3772H95.5786V4.48379H58.6445V3.03906H96.1729C96.6429 3.03906 97.0233 3.41946 97.0233 3.8895V29.3772Z" fill="#D93025"/>
<path d="M99.9999 26.4004H98.5551V1.50576H61.6211V0.0610352H99.1494C99.6195 0.0610352 99.9999 0.441429 99.9999 0.911478V26.4004Z" fill="#D93025"/>
</g>
<defs>
<clipPath id="clip0_35_479">
<rect width="100" height="31.8775" fill="white" transform="translate(0 0.0610352)"/>
</clipPath>
</defs>
</svg>
